HIERARCHY
ROOT Pelvis
{
	OFFSET 0.000000 0.000000 0.000000
	CHANNELS 6 Xposition Yposition Zposition Xrotation Yrotation Zrotation
	JOINT LeftUpLeg_virtual
	{
		OFFSET 0.000000 0.000000 0.000000
		CHANNELS 3 Xrotation Yrotation Zrotation
		JOINT LeftUpLeg
		{
			OFFSET 18.735201 -5.666702 -4.541200
			CHANNELS 3 Xrotation Yrotation Zrotation
			JOINT LeftLeg
			{
				OFFSET -0.021200 -31.938179 0.493100
				CHANNELS 3 Xrotation Yrotation Zrotation
				JOINT LeftFoot
				{
					OFFSET 0.021200 -31.938179 -4.336299
					CHANNELS 3 Xrotation Yrotation Zrotation
					JOINT LeftToeBase
					{
						OFFSET 0.943001 -26.722000 15.023500
						CHANNELS 3 Xrotation Yrotation Zrotation
						End Site
						{
							OFFSET 0 0 0
						}
					}
				}
			}
		}
	}
	JOINT RightUpLeg_virtual
	{
		OFFSET 0.000000 0.000000 0.000000
		CHANNELS 3 Xrotation Yrotation Zrotation
		JOINT RightUpLeg
		{
			OFFSET -18.735201 -5.666702 -4.541200
			CHANNELS 3 Xrotation Yrotation Zrotation
			JOINT RightLeg
			{
				OFFSET 0.018946 -31.938133 0.493100
				CHANNELS 3 Xrotation Yrotation Zrotation
				JOINT RightFoot
				{
					OFFSET -0.018946 -31.938126 -4.336299
					CHANNELS 3 Xrotation Yrotation Zrotation
					JOINT RightToeBase
					{
						OFFSET -0.943001 -26.722004 15.023500
						CHANNELS 3 Xrotation Yrotation Zrotation
						End Site
						{
							OFFSET 0 0 0
						}
					}
				}
			}
		}
	}
	JOINT Hips_virtual
	{
		OFFSET 0.000000 0.000000 0.000000
		CHANNELS 3 Xrotation Yrotation Zrotation
		JOINT Hips
		{
			OFFSET -0.000000 -0.000000 -0.000000
			CHANNELS 3 Xrotation Yrotation Zrotation
			JOINT Spine
			{
				OFFSET 0.000000 10.199997 -0.299500
				CHANNELS 3 Xrotation Yrotation Zrotation
				JOINT Spine1
				{
					OFFSET 0.000000 11.900002 -1.516600
					CHANNELS 3 Xrotation Yrotation Zrotation
					JOINT Spine2
					{
						OFFSET 0.000000 13.600006 -2.842500
						CHANNELS 3 Xrotation Yrotation Zrotation
						JOINT Neck_virtual
						{
							OFFSET 0.000000 0.000000 0.000000
							CHANNELS 3 Xrotation Yrotation Zrotation
							JOINT Neck
							{
								OFFSET 0.000000 9.624100 -2.890100
								CHANNELS 3 Xrotation Yrotation Zrotation
								JOINT Head
								{
									OFFSET 0.000000 14.068802 -1.351900
									CHANNELS 3 Xrotation Yrotation Zrotation
									End Site
									{
										OFFSET 0 0 0
									}
								}
							}
						}
						JOINT LeftShoulder_virtual
						{
							OFFSET 0.000000 0.000000 0.000000
							CHANNELS 3 Xrotation Yrotation Zrotation
							JOINT LeftShoulder
							{
								OFFSET 15.263000 10.923401 -0.547700
								CHANNELS 3 Xrotation Yrotation Zrotation
								JOINT LeftArm
								{
									OFFSET 25.438599 -2.830597 -13.032500
									CHANNELS 3 Xrotation Yrotation Zrotation
									JOINT LeftForeArm
									{
										OFFSET 29.960503 0.000000 0.000000
										CHANNELS 3 Xrotation Yrotation Zrotation
										JOINT LeftHand
										{
											OFFSET 27.849251 0.000000 0.000000
											CHANNELS 3 Xrotation Yrotation Zrotation
											End Site
											{
												OFFSET 0 0 0
											}
										}
									}
								}
							}
						}
						JOINT RightShoulder_virtual
						{
							OFFSET 0.000000 0.000000 0.000000
							CHANNELS 3 Xrotation Yrotation Zrotation
							JOINT RightShoulder
							{
								OFFSET -15.263000 10.923401 -0.547700
								CHANNELS 3 Xrotation Yrotation Zrotation
								JOINT RightArm
								{
									OFFSET -25.438599 -2.830597 -13.032500
									CHANNELS 3 Xrotation Yrotation Zrotation
									JOINT RightForeArm
									{
										OFFSET -29.960503 0.000000 0.000000
										CHANNELS 3 Xrotation Yrotation Zrotation
										JOINT RightHand
										{
											OFFSET -27.849251 0.000000 0.000000
											CHANNELS 3 Xrotation Yrotation Zrotation
											End Site
											{
												OFFSET 0 0 0
											}
										}
									}
								}
							}
						}
					}
				}
			}
		}
	}
}
MOTION
Frames: 5
Frame Time: 0.03333333
-15.237579 20.583488 -72.280922 0.000000 0.000000 0.000000 -86.567710 13.364243 -6.610149 -74.289864 6.266010 40.675887 79.179064 10.661430 -3.595017 33.251417 2.918410 -13.141071 0.000000 0.000000 0.000000 -85.652362 15.146419 -6.378504 -64.111250 22.703551 -41.690174 106.466865 8.338333 3.002240 44.913774 10.657074 28.792369 0.000000 0.000000 0.000000 -86.530403 15.313364 -5.049012 -1.098311 -1.287186 -1.521372 53.186683 14.213947 -1.367944 20.767171 4.237500 0.556933 0.000000 0.000000 0.000000 20.371758 3.829651 1.046650 1.255151 0.710598 -2.038273 0.000000 0.000000 0.000000 19.817174 4.096075 1.456031 1.458228 -8.023829 -11.295821 -28.652780 -22.033386 -37.335839 6.365057 -55.711695 5.138708 0.000000 0.000000 0.000000 20.303967 3.684628 1.049645 0.268591 15.040189 13.439909 -20.433681 -9.106339 28.877831 4.606880 42.180468 -1.787843 0.000000 0.000000 0.000000 
-15.496712 21.072617 -75.636345 0.000000 0.000000 0.000000 -92.101078 12.883230 -7.952911 -69.760431 2.359238 39.532489 79.906936 10.687314 -1.126611 31.176170 3.646031 -14.554689 0.000000 0.000000 0.000000 -91.267378 14.760235 -7.498408 -54.001743 21.112965 -37.290494 103.725322 6.586301 1.589208 41.504833 10.870649 28.558653 0.000000 0.000000 0.000000 -91.327313 14.309064 -6.423636 -1.705186 -0.965574 -1.594290 51.854195 14.352191 0.098755 21.309546 4.401651 0.438072 0.000000 0.000000 0.000000 21.531463 3.826307 0.930562 1.223698 0.821690 -2.089001 0.000000 0.000000 0.000000 20.825790 4.127221 1.346053 1.255676 -8.685867 -9.770994 -21.638181 -20.267383 -32.832207 6.351038 -57.956764 5.413277 0.000000 0.000000 0.000000 21.226256 3.782792 1.026610 -0.314580 15.838280 13.254637 -6.993750 -6.434225 28.648696 3.301311 39.967125 -0.052127 0.000000 0.000000 0.000000 
-15.803058 21.377747 -79.294327 0.000000 0.000000 0.000000 -96.264174 13.889823 -8.309599 -65.288856 -1.209168 38.267094 79.820801 10.259149 1.548527 28.437732 3.673264 -15.470457 0.000000 0.000000 0.000000 -95.843721 15.983718 -7.681726 -46.200458 20.382813 -31.934649 102.264843 4.409182 0.744991 38.105533 9.391073 25.473498 0.000000 0.000000 0.000000 -95.119981 14.905993 -7.068732 -1.951597 -0.637503 -1.717182 50.295143 13.093254 1.880892 20.632050 4.012217 0.361084 0.000000 0.000000 0.000000 21.338206 3.332410 0.801886 1.106420 0.873713 -2.024332 0.000000 0.000000 0.000000 20.510532 3.654205 1.207784 1.198006 -9.524093 -8.069904 -15.892747 -18.239057 -29.992071 5.931155 -58.724935 5.323083 0.000000 0.000000 0.000000 20.777985 3.385774 0.950559 -0.403341 15.899630 11.958222 4.440180 -0.737125 29.286099 2.612581 36.330941 0.697578 0.000000 0.000000 0.000000 
-16.197180 21.606110 -82.901810 0.000000 0.000000 0.000000 -99.110853 15.974108 -7.496458 -61.049590 -3.929670 37.417047 78.558302 9.465531 4.111575 24.742143 3.081230 -16.060626 0.000000 0.000000 0.000000 -99.465900 18.352360 -6.626377 -41.524504 19.951351 -26.627323 102.039502 2.102215 0.514945 35.853842 7.534132 20.746821 0.000000 0.000000 0.000000 -98.229936 16.812668 -6.589694 -2.130949 -0.822988 -2.000189 48.171842 10.369279 3.458501 18.766059 2.998774 0.232475 0.000000 0.000000 0.000000 19.710060 2.353746 0.627791 0.970022 0.862512 -1.833098 0.000000 0.000000 0.000000 18.930663 2.608378 0.974878 1.280624 -10.195801 -6.456824 -10.972475 -16.061606 -29.047200 5.213422 -57.425806 4.867040 0.000000 0.000000 0.000000 19.037127 2.410655 0.744246 -0.086055 15.068973 10.420968 14.439973 5.789081 30.321272 2.500622 35.310514 0.504278 0.000000 0.000000 0.000000 
-16.774998 21.832520 -86.001099 0.000000 0.000000 0.000000 -101.057806 18.296871 -5.813072 -57.500323 -5.650106 37.307190 76.591071 8.892553 6.171694 20.052474 2.959335 -15.720372 0.000000 0.000000 0.000000 -102.085592 20.754578 -4.669666 -40.059254 19.910826 -21.745454 102.791205 0.365738 0.327606 36.511015 6.798474 16.022516 0.000000 0.000000 0.000000 -100.801994 19.112884 -5.080708 -2.348791 -1.097826 -2.181102 45.504653 6.413135 4.346359 15.886665 1.488973 -0.006647 0.000000 0.000000 0.000000 16.979896 0.902339 0.393284 0.851552 0.784185 -1.592778 0.000000 0.000000 0.000000 16.407972 1.140030 0.565603 1.432687 -10.392141 -5.122479 -5.916830 -14.053688 -29.324256 4.494476 -54.184492 4.316640 0.000000 0.000000 0.000000 16.284814 0.896143 0.349012 0.410665 13.340305 9.559465 23.947705 10.268979 31.037411 2.713364 39.433182 -0.150925 0.000000 0.000000 0.000000 
